# xmcd
#
# Track frame offsets:
#	150
#	21454
#	35984
#	57857
#	75431
#	93293
#	123092
#	157281
#	171743
#	197690
#	220234
#	239405
#	262341
#
# Disc length: 3626 seconds
#
# Revision: 0
# Processed by: cddbd v1.5.1PL2 Copyright (c) Steve Scherf et al.
# Submitted via: EasyCDDAExtractor 8.2.3.1
#
DISCID=c20e280d
DTITLE=Eb Davis and The Superband  - Live At The A-Trane Berlin
DYEAR=2005
DGENRE=Blues
TTITLE0=The Moon Is Full
TTITLE1=Big Mother For Ya
TTITLE2=Love You Baby (aka Loving Mother For You)
TTITLE3=29 Ways (aka Twenty-Nine Ways To My Baby's Door)
TTITLE4=Shack Bully
TTITLE5=Sleeping In The Ground
TTITLE6=Come On In This House
TTITLE7=Somebody Told You
TTITLE8=Monday Morning Blues (aka Happy Birthday Blues)
TTITLE9=Grooving Together
TTITLE10=Uh, Uh Baby
TTITLE11=I Can't Stand Myself
TTITLE12=Good Night Sweetheart
EXTD=
EXTT0=
EXTT1=
EXTT2=
EXTT3=
EXTT4=
EXTT5=
EXTT6=
EXTT7=
EXTT8=
EXTT9=
EXTT10=
EXTT11=
EXTT12=
PLAYORDER=
